<svg width="509" height="500" viewBox="0 0 509 500" fill="none" xmlns="http://www.w3.org/2000/svg">
<rect width="509" height="500" fill="#1E1E1E"/>
<path d="M501.663 250C501.663 384.383 390.917 493.5 254.082 493.5C117.246 493.5 6.5 384.383 6.5 250C6.5 115.618 117.246 6.5 254.082 6.5C390.917 6.5 501.663 115.618 501.663 250Z" fill="#0E0E0E" stroke="#9EDDFF" stroke-width="13"/>
<circle cx="239.5" cy="192.5" r="48.5" fill="#0E0E0E" stroke="#9EDDFF" stroke-width="8"/>
<rect x="160" y="140" width="79" height="111" fill="#0E0E0E"/>
<path d="M318 278C318 307.032 288.169 332 249.394 332C210.619 332 180.788 307.032 180.788 278C180.788 248.968 210.619 224 249.394 224C288.169 224 318 248.968 318 278Z" fill="#0E0E0E" stroke="#9EDDFF" stroke-width="8"/>
<rect x="173" y="213" width="71" height="132" fill="#0E0E0E"/>
<line x1="243" y1="145" x2="243" y2="336" stroke="#9EDDFF" stroke-width="8"/>
<line x1="244.091" y1="331.745" x2="177.091" y2="260.745" stroke="#9EDDFF" stroke-width="8"/>
<line x1="136.51" y1="334.045" x2="243.51" y2="143.045" stroke="#9EDDFF" stroke-width="8"/>
</svg>
